inDegrees=yes
name=ik_S48_A08_T01
DataType=double
version=3
OpenSimVersion=4.3-2021-08-27-4bc7ad9
endheader
time	pelvis_tilt	pelvis_list	pelvis_rotation	pelvis_tx	pelvis_ty	pelvis_tz	hip_flexion_r	hip_adduction_r	hip_rotation_r	knee_angle_r	knee_angle_r_beta	ankle_angle_r	subtalar_angle_r	mtp_angle_r	hip_flexion_l	hip_adduction_l	hip_rotation_l	knee_angle_l	knee_angle_l_beta	ankle_angle_l	subtalar_angle_l	mtp_angle_l	lumbar_extension	lumbar_bending	lumbar_rotation	arm_flex_r	arm_add_r	arm_rot_r	elbow_flex_r	pro_sup_r	wrist_flex_r	wrist_dev_r	arm_flex_l	arm_add_l	arm_rot_l	elbow_flex_l	pro_sup_l	wrist_flex_l	wrist_dev_l
0	0	0	0	0	0.9399999999999999	0	0	0	0	0	0	0	0	0	0	0	0	0	0	0	0	0	0	0	0	0	0	0	0	89.99999999963507	0	0	0	0	0	0	89.99999999869995	0	0
0.02	-7.353248438658239	-0.5856302095886408	29.20421755168669	0	0.9399999999999999	0	3.10366578940694	-1.461306070139739	-1.045722936676303	4.794063303588448	0.08367218919665491	0	0	0	3.10366578940694	-1.461306070139739	-1.045722936676303	4.794063303588448	0.08367218919665491	0	0	0	-0.9689416610918385	-4.419516866418891	6.442546151959951	25.93558909939383	-6.939198685866005	-4.340231897734871	59.31887453466735	157.7226712714931	0	0	22.49691793207042	-13.40899209287859	-1.844043777248821	49.57645254621593	128.368880994094	0	0
0.04	-7.153798740428467	-0.6957393589099922	29.51657362836059	0	0.9399999999999999	0	6.01534800882229	-2.891804162772396	-2.063418440859097	8.360490223143438	0.1459180814746484	0	0	0	6.01534800882229	-2.891804162772396	-2.063418440859097	8.360490223143438	0.1459180814746484	0	0	0	-1.134645702589042	-4.242335194085305	6.223331203112451	25.94467951712554	-6.962236949414911	-4.438761735472639	59.30195490922088	157.571692621975	0	0	22.54564681556236	-13.38950487699699	-1.752292307195069	49.58791535879295	128.396801807968	0	0
0.06	-7.178150618987633	-0.735857983873168	29.52048537081267	0	0.9399999999999999	0	6.025470368557427	-2.896638737939013	-2.066876475212788	8.372672717595346	0.1461307061139402	0	0	0	6.025470368557427	-2.896638737939013	-2.066876475212788	8.372672717595346	0.1461307061139402	0	0	0	-1.176090922651953	-4.265248377583072	6.264114063356002	26.01367023863529	-6.907727159865714	-4.509662502075249	59.29176927573922	157.3388318235581	0	0	22.69892270846912	-13.45442134889631	-1.549616964356258	49.58615916749054	128.3755999484092	0	0
0.08	-7.158783355972997	-0.7289757470834721	29.52804743323551	0	0.9399999999999999	0	6.037036783928337	-2.90218149184286	-2.07083273590219	8.386566165778822	0.146373192529197	0	0	0	6.037036783928337	-2.90218149184286	-2.07083273590219	8.386566165778822	0.146373192529197	0	0	0	-1.156457345574523	-4.268617753741119	6.295987520751091	25.97221250169025	-6.797965506257829	-4.55539711513588	59.21055638228114	156.9142416649724	0	0	22.72316167435103	-13.51893216540546	-1.336556324771106	49.55445718757058	128.4213599175289	0	0
0.1	-7.140206209347126	-0.71277421358788	29.53274633443441	0	0.9399999999999999	0	6.050342203165213	-2.908567629634133	-2.075386773305532	8.402527681695242	0.146651773535548	0	0	0	6.050342203165213	-2.908567629634133	-2.075386773305532	8.402527681695242	0.146651773535548	0	0	0	-1.133069281330434	-4.263435932785796	6.329788917925961	25.91956838867286	-6.821802814613808	-4.688456776277832	59.12648681977213	156.4934276428388	0	0	22.76254965159177	-13.65364991510946	-1.208494735550906	49.56112438053685	128.43980340225	0	0
0.12	-7.170311068515036	-0.7352851771300372	29.52598876252316	0	0.9399999999999999	0	6.06593681792085	-2.916038945329783	-2.080721463441754	8.421239731884937	0.1469783604211566	0	0	0	6.06593681792085	-2.916038945329783	-2.080721463441754	8.421239731884937	0.1469783604211566	0	0	0	-1.171196548644585	-4.267707967029682	6.368737581352408	26.02115426220141	-6.858639676658459	-4.866064726170891	59.04129223037899	156.1317666892754	0	0	22.87975717997808	-13.70936305016903	-1.182408437248653	49.61934866953776	128.4530019680733	0	0
0.14	-7.169730028079885	-0.7319256638498782	29.49870368774534	0	0.9399999999999999	0	6.073593269170177	-2.91970544984961	-2.083340448515104	8.430423585107565	0.1471386488979114	0	0	0	6.073593269170177	-2.91970544984961	-2.083340448515104	8.430423585107565	0.1471386488979114	0	0	0	-1.169465867196558	-4.264743006134591	6.382638188757203	26.03499427296669	-6.860190448504032	-5.043654107513261	58.98732023595035	156.0073662650278	0	5.38806921148701e-36	22.8879402035881	-13.76748369748287	-1.181829851384795	49.60534780420313	128.408592915674	0	5.38806921148701e-36
0.16	-7.138049022817089	-0.6980256857098165	29.49461673934118	0	0.9399999999999999	0	6.085215150887485	-2.925287123130453	-2.087320218563676	8.444339783265185	0.1473815323751218	0	0	0	6.085215150887485	-2.925287123130453	-2.087320218563676	8.444339783265185	0.1473815323751218	0	0	0	-1.125707888175789	-4.250541365365058	6.407150014116977	25.96655277083454	-6.905144652859602	-5.181474590320137	58.91548047371555	155.8998855176863	0	0	22.82034752636302	-13.78375483808298	-1.106564026069631	49.58162448526289	128.280776292596	0	0
0.18	-7.112533461622408	-0.6809007321937446	29.48688761298195	0	0.9399999999999999	0	6.298169864927008	-3.014458978498862	-2.163613372518247	8.624454894537541	0.1505251340994204	0	0	0	6.298169864927008	-3.014458978498862	-2.163613372518247	8.624454894537541	0.1505251340994204	0	0	0	-1.117927730193419	-4.218832058444743	6.401242347300664	25.92890338765158	-6.940259499544379	-5.236647772938553	58.89161343927248	155.8587905435241	0	0	22.79400081309812	-13.76127347246935	-1.076989225460209	49.59964211330473	128.0902171243889	0	0
0.2	-6.912379581182115	-0.7983390187985691	29.67665100666218	0	0.9399999999999999	0	8.917283303263153	-3.995689398788778	-3.046049740382584	10.76216577942361	0.1878352274964038	0	0	0	8.917283303263153	-3.995689398788778	-3.046049740382584	10.76216577942361	0.1878352274964038	0	0	0	-1.293635563873796	-4.033398159759543	6.204758404118579	26.00596473531677	-6.88634401814743	-5.308451179473376	58.81830834611024	156.0353998599381	0	0	22.86211523717253	-13.76182222111288	-1.044564113271713	49.47529415344238	127.9058100337423	0	0
0.22	-6.862460887451212	-0.8122257283095536	29.71475541426346	0	0.9399999999999999	0	9.411206257550251	-4.173398425577699	-3.203058675664071	11.27068957740937	0.1967106420960019	0	0	0	9.411206257550251	-4.173398425577699	-3.203058675664071	11.27068957740937	0.1967106420960019	0	0	0	-1.303815634445959	-4.006542615527782	6.161639151274602	25.98466220680375	-6.901091141504722	-5.299275737475853	58.81674191661212	156.025090625945	0	0	22.85354169575383	-13.77116692020489	-1.038580379116871	49.41336180923054	127.6667146944666	0	0
